<?xml version="1.0" encoding="utf-8"?>
<!-- Generator: Adobe Illustrator 20.1.0, SVG Export Plug-In . SVG Version: 6.00 Build 0)  -->
<svg version="1.1" id="Calque_1" xmlns="http://www.w3.org/2000/svg" xmlns:xlink="http://www.w3.org/1999/xlink" x="0px" y="0px"
	 viewBox="0 0 432 432" style="enable-background:new 0 0 432 432;" xml:space="preserve">
<style type="text/css">
	.st0{fill:#CC7B26;}
	.st1{fill:#D60B52;}
	.st2{fill:#020203;}
</style>
<g>
	<g>
		<path d="M189.3,215.8c-0.9,2-1.9,4-3,5.9c-1.1,1.9-2.3,3.7-3.6,5.4c-1.3,1.7-2.6,3.1-4.1,4.4c0.8-4.9,1.7-9.6,2.5-14.2
			c0.8-4.6,1.6-9.5,2.3-14.6c0.1-0.7-0.1-1.3-0.5-1.7c-0.4-0.4-0.9-0.7-1.5-0.9c-0.6-0.1-1.1-0.1-1.7,0.2c-0.5,0.2-0.8,0.8-1,1.5
			c-0.4,1.4-0.9,2.8-1.4,4.2c-0.5,1.4-1.1,2.6-1.7,3.8c-0.6,1.1-1.3,2.1-2,2.9c-0.7,0.8-1.5,1.3-2.3,1.5c-0.7,0.2-1.1-0.1-1.3-0.9
			c-0.2-0.8-0.2-1.8,0-3c0.1-1.3,0.4-2.7,0.7-4.2c0.3-1.6,0.6-3,0.9-4.5c0.2-0.6,0-1.2-0.4-1.6c-0.4-0.4-0.9-0.7-1.5-0.9
			c-0.6-0.1-1.1-0.1-1.7,0.1c-0.5,0.2-0.9,0.7-1,1.3c-0.3,1.8-0.6,3.6-0.7,5.5c-0.2,1.9-0.1,3.5,0.2,5c0.1,0.4,0.2,0.8,0.3,1.1
			c-0.9,1.9-1.9,3.6-2.9,5.1c-1.4,2.1-2.7,3.1-4,3.2c0.8-1.7,1.4-3.5,1.7-5.5c0.4-2,0.5-3.8,0.4-5.6c-0.1-1.7-0.5-3.2-1.1-4.5
			c-0.6-1.2-1.5-2-2.6-2.2c-0.8-0.2-1.6,0-2.5,0.4c-0.8,0.4-1.7,1-2.5,1.7c-0.8,0.8-1.5,1.7-2.3,2.7c-0.7,1-1.4,2-2,3
			c0.2-1.4,0.4-2.8,0.6-4.1c0.2-1.3,0.3-2.5,0.5-3.6c0.1-0.7-0.1-1.3-0.5-1.7c-0.4-0.4-0.9-0.8-1.5-0.9c-0.6-0.2-1.1-0.1-1.7,0
			c-0.5,0.2-0.8,0.6-1,1.3c-0.2,1.4-0.4,3.3-0.7,5.6c-0.2,2-0.4,4.1-0.7,6.4c-0.7,1.4-1.4,2.6-2.2,3.7c-1.4,2.1-2.7,3.1-4,3.2
			c0.8-1.7,1.4-3.5,1.7-5.5c0.4-2,0.5-3.8,0.4-5.6c-0.1-1.7-0.5-3.2-1.1-4.5c-0.6-1.2-1.5-2-2.6-2.2c-0.8-0.2-1.6,0-2.5,0.4
			c-0.8,0.4-1.7,1-2.5,1.7c-0.8,0.8-1.5,1.7-2.3,2.7c-0.7,1-1.4,2-2,3c0.2-1.4,0.4-2.8,0.6-4.1c0.2-1.3,0.3-2.5,0.5-3.6
			c0.1-0.7-0.1-1.3-0.5-1.7c-0.4-0.4-0.9-0.8-1.5-0.9c-0.6-0.2-1.1-0.1-1.7,0c-0.5,0.2-0.8,0.6-1,1.3c-0.2,1.4-0.4,3.3-0.7,5.6
			c-0.1,0.8-0.2,1.7-0.3,2.5c-0.1,0.4-0.3,0.8-0.4,1.3c-0.6,1.6-1.2,3.3-1.9,5.1c-0.7,1.8-1.5,3.7-2.3,5.5c-0.8,1.8-1.7,3.5-2.6,5
			c-0.9,1.5-1.8,2.7-2.7,3.7c-0.9,1-1.8,1.5-2.6,1.5c-0.5,0.1-0.7-0.4-0.7-1.3c0-1,0.2-2.2,0.5-3.6c0.3-1.5,0.7-3.1,1.3-5
			c0.5-1.8,1.1-3.7,1.7-5.5c0.6-1.8,1.1-3.5,1.7-5c0.5-1.6,1-2.8,1.3-3.7c0.2-0.5,0.1-1,0-1.4c-0.2-0.4-0.5-0.8-0.8-1.1
			c-0.4-0.3-0.8-0.5-1.3-0.6c-0.5-0.1-0.9-0.1-1.3,0c-2.5-0.4-4.7-0.4-6.4,0.2c-1.7,0.6-3.1,1.4-4.2,2.5c-1.1,1.1-1.8,2.4-2.2,3.8
			c-0.4,1.4-0.5,2.7-0.4,3.9c0.1,0.5,0.2,1.1,0.4,1.5c-0.4,0.7-0.8,1.5-1.2,2.2c-0.9,1.4-1.8,2.6-2.9,3.6c-1.1,1-2.1,1.5-3.2,1.5
			c-0.7,0-1.2-0.6-1.4-1.7c-0.2-1.2-0.2-2.6-0.1-4.4c0.1-1.8,0.4-3.7,0.8-5.9c0.4-2.1,0.7-4.2,1.1-6.2c0.4-2,0.7-3.8,1.1-5.3
			c0.3-1.6,0.5-2.7,0.6-3.3c0.8-0.7,1.6-1.7,2.4-2.8c0.7-1.1,1.4-2.3,2-3.6c0.6-1.3,1.1-2.6,1.4-3.9c0.4-1.3,0.6-2.5,0.7-3.6
			c0.1-1.1,0-1.9-0.2-2.6c-0.2-0.7-0.7-1-1.3-1.1c-0.8,0-1.6,0.4-2.3,1.2c-0.7,0.8-1.5,1.9-2.1,3.2c-0.7,1.3-1.3,2.7-1.9,4.3
			c-0.6,1.6-1.1,3.1-1.6,4.5c-0.5,1.5-0.9,2.8-1.2,4c-0.3,1.2-0.6,2-0.7,2.6c-1.1,0.9-1.9,1.7-2.7,2.3c-0.7,0.6-1.4,1.2-2.1,1.8
			c-0.7,0.6-1.4,1.1-2.1,1.8c-0.7,0.6-1.6,1.4-2.6,2.3c0.1-0.8,0.2-1.9,0.4-3.4c0.1-1.5,0.3-3.1,0.4-4.9c0.1-1.8,0.3-3.7,0.4-5.6
			c0.2-1.9,0.3-3.8,0.5-5.5c0.2-1.8,0.4-3.3,0.6-4.7c0.2-1.4,0.5-2.4,0.8-3.1c0.3-0.6,0.4-1.1,0.4-1.3c0-0.2-0.1-0.4-0.4-0.5
			c-2.6-0.6-5.3-1.1-7.9-1.6c-2.6-0.5-5.3-0.7-7.9-0.6c-3.1,0.1-5.5,0.7-7.4,1.9c-1.9,1.2-3.3,2.6-4.2,4.4c-0.9,1.7-1.4,3.6-1.5,5.6
			c-0.1,2,0.3,3.9,1,5.5c0.7,1.7,1.7,3.1,3,4.2c1.3,1.1,2.9,1.7,4.7,1.6c1.7-0.1,3.2-0.6,4.6-1.7c1.3-1.1,2.4-2.5,3.3-4.2
			c0.2-0.4,0.2-0.7-0.1-0.9c-0.3-0.2-0.5-0.1-0.7,0.3c-0.7,1.5-1.7,2.8-2.9,3.8c-1.2,1-2.6,1.5-4.1,1.5c-1.6,0.1-3-0.4-4.2-1.4
			c-1.2-1-2.1-2.3-2.7-3.8c-0.6-1.5-0.9-3.2-0.8-5c0.1-1.8,0.5-3.5,1.4-5.1c0.9-1.6,2.2-2.9,4-4c1.8-1.1,4.1-1.7,6.9-1.7
			c2.5-0.1,5.1,0.1,7.6,0.6c2.5,0.4,5,0.9,7.6,1.5c-0.5,0.8-1,2-1.5,3.6c-0.5,1.6-1,3.3-1.5,5.2c-0.5,1.9-1,3.9-1.5,6.1
			c-0.5,2.1-0.9,4.2-1.3,6.1c-0.4,2-0.7,3.8-1,5.3c-0.3,1.6-0.5,2.8-0.7,3.7c-0.9,0.8-2,2.1-3.2,3.8c-1.2,1.7-2.4,3.6-3.6,5.6
			c-1.1,2-2.1,4-3,6c-0.8,2-1.3,3.7-1.3,5c-0.1,2.6,0.9,3.9,2.9,3.9c1.4,0,2.8-0.7,4.1-2.1c1.3-1.4,2.5-3.3,3.7-5.6
			c1.1-2.3,2.2-5,3-7.9c0.9-3,1.6-6,2.1-9.1c1-0.9,1.9-1.7,2.6-2.3c0.7-0.6,1.4-1.2,2.1-1.8c0.7-0.6,1.3-1.2,2.1-1.8
			c0.7-0.6,1.6-1.3,2.7-2.2c-0.2,0.8-0.5,2-0.8,3.6c-0.3,1.5-0.5,3.2-0.8,5c-0.2,1.8-0.3,3.6-0.4,5.5c0,1.9,0.1,3.6,0.4,5.1
			c0.3,1.5,0.7,2.8,1.4,3.8c0.7,1,1.7,1.5,2.9,1.5c1.4,0,2.7-0.5,3.8-1.5c1.2-1,2.3-2.3,3.2-3.8c0.5-0.7,0.9-1.5,1.4-2.3
			c0.1,0.2,0.2,0.3,0.3,0.5c0.7,0.8,1.7,1.2,2.9,1.2c1,0,1.9-0.5,2.8-1.5c0.9-1,1.7-2.2,2.5-3.7c-0.6,2.1-1.1,4.3-1.5,6.5
			c-0.4,2.2-0.7,4.3-0.7,6.1c0,1.8,0.2,3.4,0.8,4.6c0.5,1.2,1.5,1.8,2.9,1.8c1-0.1,1.9-0.6,2.9-1.6c1-1,2-2.3,2.9-3.8
			c0.9-1.5,1.8-3.2,2.7-5.1c0.8-1.9,1.6-3.8,2.4-5.7c0.4-1,0.8-1.9,1.1-2.9c0,0.2,0,0.4-0.1,0.6c-0.3,2.7-0.7,5.5-1.1,8.4
			c-0.4,2.9-0.9,5.7-1.5,8.4c-1.1,0.5-2.3,1.2-3.5,2.1c-1.2,1-2.4,2.1-3.4,3.4c-1,1.3-1.9,2.7-2.5,4.2c-0.6,1.5-0.9,3.1-0.9,4.6
			c0.1,0.6,0.2,1.2,0.5,1.7c0.3,0.5,0.8,0.7,1.5,0.8c1.6,0.1,3.1-0.5,4.4-1.7c1.3-1.2,2.5-2.6,3.5-4.3c1-1.7,1.9-3.6,2.7-5.5
			c0.7-2,1.3-3.7,1.7-5.2c0.8-0.1,1.6-0.1,2.5-0.1c0.8,0,1.7,0.1,2.7,0.4c0.2,0.1,0.4-0.1,0.5-0.5c0.1-0.4,0-0.6-0.3-0.7
			c-1.8-0.3-3.5-0.4-5-0.2c0.3-1.3,0.6-2.6,0.8-3.9c0.2-1.3,0.5-2.7,0.8-4c0.1,1,0.3,1.8,0.9,2.6c0.5,0.8,1.3,1.3,2.5,1.6
			c2,0.4,3.7,0.1,5.1-0.9c1.5-1,2.7-2.3,3.6-4c0.1,0,0.2,0,0.3,0c0.1,0,0.2,0,0.3,0c0.7-0.1,1.5-0.4,2.2-1c0.7-0.6,1.5-1.4,2.3-2.5
			c0.5-0.6,0.9-1.3,1.3-2c-0.3,2.2-0.6,4.5-0.9,6.8c-0.4,2.9-0.9,5.7-1.5,8.4c-1.1,0.5-2.3,1.2-3.5,2.1c-1.2,1-2.4,2.1-3.4,3.4
			c-1,1.3-1.9,2.7-2.5,4.2c-0.6,1.5-0.9,3.1-0.9,4.6c0.1,0.6,0.2,1.2,0.5,1.7c0.3,0.5,0.8,0.7,1.5,0.8c1.6,0.1,3.1-0.5,4.4-1.7
			c1.3-1.2,2.5-2.6,3.5-4.3c1-1.7,1.9-3.6,2.7-5.5c0.7-2,1.3-3.7,1.7-5.2c0.8-0.1,1.6-0.1,2.5-0.1c0.8,0,1.7,0.1,2.7,0.4
			c0.2,0.1,0.4-0.1,0.5-0.5c0.1-0.4,0-0.6-0.3-0.7c-1.8-0.3-3.5-0.4-5-0.2c0.3-1.3,0.6-2.6,0.8-3.9c0.2-1.3,0.5-2.7,0.8-4
			c0.1,1,0.3,1.8,0.9,2.6c0.5,0.8,1.3,1.3,2.5,1.6c2,0.4,3.7,0.1,5.1-0.9c1.5-1,2.7-2.3,3.6-4c0.1,0,0.2,0,0.3,0c0.1,0,0.2,0,0.3,0
			c0.7-0.1,1.5-0.4,2.2-1c0.7-0.6,1.5-1.4,2.3-2.5c0.8-1,1.5-2.2,2.2-3.6c0.2-0.4,0.4-0.9,0.7-1.3c0.2,0.4,0.5,0.8,0.8,1.1
			c0.8,0.8,1.9,1.1,3.4,0.9c1.4-0.3,2.6-1.2,3.6-2.6c1-1.4,1.9-3,2.7-4.9c-0.7,4.6-1.3,9-1.9,13.3c-0.6,4.3-1.2,8.7-1.7,13.3
			c-1.2,0.7-2.5,1.7-4,2.9c-1.5,1.2-2.9,2.5-4.2,4.1c-1.3,1.5-2.4,3.2-3.2,5c-0.8,1.8-1.1,3.6-0.9,5.4c0.1,0.8,0.4,1.5,1,2
			c0.5,0.5,1.4,0.7,2.6,0.5c1.7-0.2,3.3-0.9,4.7-2.2c1.4-1.2,2.6-2.8,3.6-4.8c1-1.9,1.9-4.1,2.7-6.6c0.7-2.5,1.4-5,1.9-7.7
			c3.4-2.8,6.2-6.2,8.4-10.1c2.2-3.9,4.2-8.1,5.9-12.5l-0.9-0.5C191,211.8,190.2,213.8,189.3,215.8z M95.4,191.5
			c0.2-1.6,0.5-3.2,0.8-4.9c0.3-1.7,0.8-3.1,1.3-4.4c0.5-1.3,1.1-1.9,1.8-1.9c0.5,0,0.8,0.6,0.7,1.8c-0.1,1.2-0.4,2.6-0.8,4.2
			c-0.5,1.6-1.1,3.2-1.8,4.8c-0.7,1.6-1.5,2.8-2.4,3.7C95.1,194.2,95.2,193.1,95.4,191.5z M73.1,219.1c-0.4,2.6-1,4.9-1.5,6.9
			c-0.6,2-1.3,3.5-2,4.7c-0.8,1.1-1.7,1.7-2.8,1.7c-0.7-0.1-1.3-0.3-1.5-0.7c-0.3-0.4-0.4-1.1-0.4-2c0.1-1.1,0.4-2.6,1.2-4.4
			c0.7-1.8,1.6-3.7,2.7-5.6c1-1.9,2.1-3.6,3.2-5.2c1.1-1.6,2-2.8,2.7-3.5C74,213.7,73.5,216.5,73.1,219.1z M108.1,213.1
			c-0.8,1.3-1.6,2.5-2.4,3.4c-0.8,1-1.6,1.5-2.3,1.5c-0.5,0.1-0.7-0.2-0.8-0.8c0-0.6,0.1-1.4,0.4-2.3c0.3-0.9,0.7-1.9,1.2-2.9
			c0.6-1.1,1.2-2.1,1.9-3c0.7-1,1.6-1.7,2.5-2.4c0.9-0.6,1.9-1,2.8-1c-0.3,0.9-0.7,2-1.3,3.4C109.6,210.4,108.9,211.8,108.1,213.1z
			 M118.2,236.4c-0.4,1.6-1,3.2-1.7,4.8c-0.7,1.6-1.5,2.9-2.3,4c-0.9,1.1-1.8,1.7-2.8,1.7c-0.4,0-0.7-0.1-0.9-0.4
			c-0.2-0.3-0.2-0.6-0.2-1c-0.1-1.3,0.1-2.6,0.7-3.9c0.6-1.3,1.3-2.6,2.2-3.8c0.9-1.2,1.9-2.2,3-3.2c1.1-0.9,2.1-1.6,3-2
			C119,233.5,118.7,234.7,118.2,236.4z M133,221.8c-0.4,0.6-0.9,1.1-1.4,1.6c-0.5,0.5-1.1,0.8-1.7,1c-0.6,0.2-1.2,0.3-1.8,0.2
			c-0.8-0.2-1.3-0.7-1.5-1.6c-0.2-0.9,0-1.7,0.4-2.5c0.5-0.8,1.3-1.3,2.4-1.6c1.1-0.3,2.6,0.1,4.5,1.1
			C133.7,220.6,133.4,221.2,133,221.8z M136.1,210.7c-0.2,1.7-0.4,3.4-0.7,5c-0.3,1.6-0.6,2.6-0.8,3.1c-1.3-0.6-2.4-1-3.4-1.1
			c-1-0.1-1.8-0.1-2.6,0.1c-0.7,0.2-1.3,0.6-1.8,1c-0.5,0.5-0.8,1-1,1.7c0.2-1.2,0.4-2.4,0.6-3.6c0.2-1.2,0.3-2.4,0.5-3.6
			c0.5-0.9,1.1-1.9,1.8-2.9c0.7-1.1,1.4-2,2.2-3c0.7-0.9,1.5-1.7,2.2-2.3c0.7-0.6,1.3-0.9,1.8-0.9c0.7,0,1.1,0.7,1.3,2
			C136.2,207.4,136.2,209,136.1,210.7z M140.2,236.4c-0.4,1.6-1,3.2-1.7,4.8c-0.7,1.6-1.5,2.9-2.3,4c-0.9,1.1-1.8,1.7-2.8,1.7
			c-0.4,0-0.7-0.1-0.9-0.4c-0.2-0.3-0.2-0.6-0.2-1c-0.1-1.3,0.1-2.6,0.7-3.9c0.6-1.3,1.3-2.6,2.2-3.8c0.9-1.2,1.9-2.2,3-3.2
			c1.1-0.9,2.1-1.6,3-2C141,233.5,140.7,234.7,140.2,236.4z M155,221.8c-0.4,0.6-0.9,1.1-1.4,1.6c-0.5,0.5-1.1,0.8-1.7,1
			c-0.6,0.2-1.2,0.3-1.8,0.2c-0.8-0.2-1.3-0.7-1.5-1.6c-0.2-0.9,0-1.7,0.4-2.5c0.5-0.8,1.3-1.3,2.4-1.6c1.1-0.3,2.6,0.1,4.5,1.1
			C155.8,220.6,155.4,221.2,155,221.8z M158.1,210.7c-0.2,1.7-0.4,3.4-0.7,5c-0.3,1.6-0.6,2.6-0.8,3.1c-1.3-0.6-2.4-1-3.4-1.1
			c-1-0.1-1.8-0.1-2.6,0.1c-0.7,0.2-1.3,0.6-1.8,1c-0.5,0.5-0.8,1-1,1.7c0.2-1.2,0.4-2.4,0.6-3.6c0.2-1.2,0.3-2.4,0.5-3.6
			c0.5-0.9,1.1-1.9,1.8-2.9c0.7-1.1,1.4-2,2.2-3c0.7-0.9,1.5-1.7,2.2-2.3c0.7-0.6,1.3-0.9,1.8-0.9c0.7,0,1.1,0.7,1.3,2
			C158.3,207.4,158.3,209,158.1,210.7z M173.1,242c-0.4,2-1,3.8-1.6,5.3c-0.7,1.6-1.5,2.9-2.4,3.9c-1,1-2.1,1.6-3.6,1.8
			c-0.9,0.1-1.5,0-1.9-0.3c-0.4-0.3-0.6-0.8-0.6-1.3c-0.2-1.6,0.1-3.2,0.9-4.8c0.8-1.6,1.8-3.1,3-4.5c1.2-1.4,2.5-2.7,3.8-3.8
			c1.3-1.1,2.5-2,3.5-2.6C173.9,237.9,173.5,240,173.1,242z"/>
		<path d="M233.7,180.2c-0.9-1.1-2-1.7-3.4-1.7c-1.2,0-2.4,0.6-3.6,1.8c-1.3,1.2-2.5,2.7-3.7,4.6c-1.2,1.8-2.3,3.8-3.3,5.8
			c-1,2.1-1.9,3.9-2.5,5.6c0-2.2-0.2-4-0.5-5.5c-0.3-1.5-0.7-2.7-1.2-3.6c-0.5-0.9-1.1-1.6-1.8-2c-0.7-0.4-1.4-0.6-2.2-0.5
			c-1.3,0.1-2.5,0.5-3.7,1.4c-1.2,0.9-2.3,2-3.2,3.2c-1,1.3-1.7,2.7-2.3,4.2c-0.6,1.5-0.9,2.9-0.9,4.2c0,1.3,0.3,2.4,1,3.3
			c0.7,0.9,1.8,1.4,3.4,1.5c0.6,0.1,1.1,0,1.7-0.2c0.5-0.2,1-0.3,1.3-0.6c0.4-0.2,0.5-0.4,0.3-0.7c-0.2-0.3-0.5-0.3-1-0.1
			c-0.6,0.3-1.3,0.4-2.3,0.3c-1.3-0.1-2.2-0.5-2.7-1.2c-0.5-0.8-0.7-1.7-0.7-2.8c0.1-1.1,0.4-2.3,0.9-3.6c0.6-1.3,1.3-2.5,2.1-3.6
			c0.8-1.1,1.8-2.1,2.8-2.9c1-0.8,2-1.2,3-1.3c0.8-0.1,1.5,0.2,2.1,0.9c0.6,0.7,0.9,1.9,0.9,3.6c0.1,1.2,0,2.7-0.2,4.4
			c-0.2,1.7-0.4,3.5-0.7,5.3c-0.3,1.9-0.6,3.8-1,5.7c-0.4,1.9-0.7,3.7-1.1,5.4c-1.2,0.6-2.4,1.3-3.4,2.3c-1.1,1-2,2.1-2.9,3.3
			c-0.8,1.3-1.5,2.7-1.9,4.3c-0.5,1.6-0.7,3.3-0.7,5.2c0.1,2.4,0.5,4.3,1.5,5.6c0.9,1.4,2.1,2.4,3.5,3c1.4,0.6,3,1,4.6,1
			c1.7,0,3.3-0.1,4.8-0.4c2.6-0.5,4.9-1.5,6.8-3c2-1.6,3.5-3.4,4.7-5.5c1.2-2.1,2-4.3,2.4-6.7c0.4-2.4,0.4-4.6-0.1-6.8
			c-0.4-2.2-1.4-4.1-2.7-5.7c-1.4-1.7-3.2-2.8-5.5-3.5c2.6-0.5,4.8-1.5,6.5-3c1.8-1.5,3.2-3.2,4.2-5.1c1.1-1.9,1.8-3.9,2.1-5.9
			c0.3-2.1,0.4-4,0.1-5.7C235.1,182.8,234.6,181.3,233.7,180.2z M231.7,185c-0.2,1.5-0.6,3.2-1.1,5.1c-0.6,1.9-1.3,3.7-2.3,5.5
			c-0.9,1.8-2,3.4-3.2,4.8c-1.2,1.5-2.6,2.5-4.2,3.3c-0.5,0.3-0.7,0.6-0.7,0.9c0,0.3,0.2,0.5,0.6,0.6c2.6,0.5,4.5,1.3,5.7,2.6
			c1.2,1.2,1.9,2.7,2.1,4.4c0.2,1.7-0.1,3.6-0.8,5.5c-0.7,2-1.7,3.9-2.9,5.8c-1.2,1.9-2.7,3.7-4.3,5.3c-1.6,1.6-3.3,2.9-5,3.9
			c-1.3,0.7-2.6,1.2-4,1.3c-1.4,0.2-2.7,0-3.9-0.5c-1.2-0.5-2.2-1.3-3-2.5c-0.8-1.2-1.2-2.8-1.3-4.7c0-1.6,0.2-3.2,0.6-4.6
			c0.4-1.4,1-2.7,1.7-3.9c0.7-1.2,1.5-2.2,2.5-3c0.9-0.9,1.9-1.6,3-2.2c-0.4,1.8-0.8,3.4-1,4.8c-0.3,1.3-0.4,2.1-0.6,2.4
			c-0.2,0.8,0,1.5,0.4,1.8c0.4,0.4,0.9,0.5,1.5,0.5c0.6,0,1.1-0.2,1.7-0.6c0.6-0.4,0.9-1,1.1-1.8c0.1-0.7,0.3-1.8,0.6-3.4
			c0.3-1.6,0.6-3.3,0.9-5.3c2-0.3,3.9,0,5.6,0.8c1.7,0.8,2.9,2.2,3.5,4.3c0.1,0.4,0.3,0.6,0.6,0.4c0.3-0.2,0.4-0.4,0.4-0.6
			c-0.6-2.4-1.9-4-3.7-5c-1.8-0.9-3.9-1.3-6.2-1c0.3-1.7,0.5-3.5,0.8-5.3c0.2-1.8,0.4-3.5,0.5-5c0.3-0.8,0.7-1.9,1.2-3.2
			c0.5-1.3,1.2-2.7,1.9-4.1c0.7-1.5,1.5-2.9,2.4-4.4c0.8-1.5,1.7-2.8,2.6-4c0.9-1.2,1.8-2.2,2.7-2.9c0.9-0.7,1.7-1.1,2.4-1.2
			c0.7-0.1,1.1,0.4,1.4,1.3C231.8,182.2,231.8,183.5,231.7,185z"/>
		<path d="M243.5,203c0.6,0,1.2-0.3,1.6-0.8c0.4-0.6,0.7-1.2,0.7-1.9c0-0.8-0.2-1.5-0.7-2c-0.4-0.5-1-0.8-1.6-0.8
			c-0.6,0-1.2,0.3-1.6,0.8c-0.4,0.5-0.7,1.2-0.7,2c0,0.7,0.2,1.4,0.7,1.9C242.3,202.7,242.9,203,243.5,203z"/>
		<path d="M377.1,209.9c-0.7,1.9-1.6,3.9-2.5,5.9c-0.9,2-1.9,4-3,5.9c-1.1,1.9-2.3,3.7-3.6,5.4c-1.3,1.7-2.6,3.1-4.1,4.4
			c0.8-4.9,1.7-9.6,2.5-14.2c0.8-4.6,1.6-9.5,2.3-14.6c0.1-0.7-0.1-1.3-0.5-1.7c-0.4-0.4-0.9-0.7-1.5-0.9c-0.6-0.1-1.1-0.1-1.7,0.2
			c-0.5,0.2-0.8,0.8-1,1.5c-0.4,1.4-0.9,2.8-1.4,4.2c-0.5,1.4-1.1,2.6-1.7,3.8c-0.6,1.1-1.3,2.1-2,2.9c-0.7,0.8-1.5,1.3-2.3,1.5
			c-0.7,0.2-1.1-0.1-1.3-0.9c-0.2-0.8-0.2-1.8,0-3c0.1-1.3,0.4-2.7,0.7-4.2c0.3-1.6,0.6-3,0.9-4.5c0.2-0.6,0-1.2-0.4-1.6
			c-0.4-0.4-0.9-0.7-1.5-0.9c-0.6-0.1-1.1-0.1-1.7,0.1c-0.5,0.2-0.9,0.7-1,1.3c-0.3,1.8-0.6,3.6-0.7,5.5c-0.2,1.9-0.1,3.5,0.2,5
			c0.1,0.4,0.2,0.7,0.3,1c-0.2,0.6-0.4,1.2-0.7,1.9c-0.6,1.6-1.2,3.3-1.9,5.1c-0.7,1.8-1.5,3.7-2.3,5.5c-0.8,1.8-1.7,3.5-2.6,5
			c-0.9,1.5-1.8,2.7-2.7,3.7c-0.9,1-1.8,1.5-2.6,1.5c-0.5,0.1-0.7-0.4-0.7-1.3c0-1,0.2-2.2,0.5-3.6c0.3-1.5,0.7-3.1,1.3-5
			c0.5-1.8,1.1-3.7,1.7-5.5c0.6-1.8,1.1-3.5,1.7-5c0.5-1.6,1-2.8,1.3-3.7c0.2-0.5,0.1-1,0-1.4c-0.2-0.4-0.5-0.8-0.8-1.1
			c-0.4-0.3-0.8-0.5-1.3-0.6c-0.5-0.1-0.9-0.1-1.3,0c-2.5-0.4-4.7-0.4-6.4,0.2c-1.7,0.6-3.1,1.4-4.2,2.5c-1.1,1.1-1.8,2.4-2.2,3.8
			c-0.4,1.4-0.5,2.7-0.4,3.9c0,0.2,0.1,0.3,0.1,0.5c-0.1,0.2-0.1,0.4-0.2,0.6c-0.7,1.8-1.5,3.6-2.3,5.5c-0.8,1.9-1.7,3.6-2.6,5
			c-0.9,1.5-1.8,2.7-2.7,3.7c-0.9,1-1.8,1.5-2.6,1.5c-0.5,0-0.8-0.7-0.9-2.2c-0.1-1.5,0-3.4,0.2-5.8c0.2-2.4,0.6-5.2,1.1-8.3
			c0.5-3.1,1.1-6.3,1.7-9.5c0.6-3.3,1.3-6.5,1.9-9.7c0.7-3.2,1.3-6,1.9-8.6c0.6-2.6,1.1-4.7,1.5-6.5c0.4-1.7,0.7-2.7,0.8-3
			c0.2-0.6,0.1-1.2-0.2-1.7c-0.3-0.5-0.8-0.9-1.3-1.1c-0.6-0.2-1.1-0.3-1.7-0.2c-0.6,0.1-0.9,0.5-1.1,1.1c-0.2,0.4-0.4,1.5-0.9,3.2
			c-0.4,1.7-0.9,3.9-1.5,6.5c-0.6,2.6-1.1,5.5-1.7,8.8c-0.6,3.2-1.1,6.5-1.6,9.8c-2.7-0.4-5-0.2-6.8,0.6c-1.8,0.8-3.3,1.8-4.4,3.2
			c-1.1,1.4-1.8,3-2.2,4.7c-0.4,1.7-0.4,3.3-0.2,4.8c0,0,0,0,0,0c-0.2,0.6-0.4,1.2-0.7,1.7c-1,2.4-1.9,4.6-3,6.7c-1,2.1-2,3.7-3,4.7
			c-0.2,0.3-0.5,0.5-0.8,0.7c-0.3,0.2-0.7,0.4-1,0.4s-0.6,0-0.8-0.2c-0.2-0.2-0.3-0.6-0.3-1.2c0-1,0.2-2.3,0.7-4
			c0.5-1.7,1-3.6,1.7-5.6c0.6-2,1.2-4,1.8-6.1c0.6-2.1,1-3.9,1.1-5.6c0.2-1.7,0-3.1-0.4-4.1c-0.4-1.1-1.3-1.6-2.7-1.6
			c-1.3,0-2.4,0.4-3.4,1.1c-1,0.8-1.9,1.7-2.7,2.9c-0.8,1.1-1.5,2.4-2,3.7c-0.6,1.3-1,2.6-1.4,3.7c0.1-1.4,0.2-2.9,0.3-4.5
			c0.1-1.6,0.2-3.3,0.4-5c1.7-1,3.8-2.5,6.1-4.4c2.3-1.9,4.4-4,6.5-6.2c2-2.2,3.7-4.6,5.1-6.9c1.4-2.4,2.1-4.5,2.1-6.4
			c0-2.4-0.5-4.3-1.6-5.6c-1.1-1.4-2.6-2.1-4.6-2.1c-2.2,0-4.1,0.8-5.9,2.4c-1.7,1.6-3.3,3.7-4.7,6.3c-1.4,2.6-2.6,5.6-3.6,8.8
			c-1,3.3-1.9,6.6-2.6,9.9c-0.7,3.3-1.2,6.5-1.6,9.5c0,0,0,0,0,0.1c-0.2,0.6-0.4,1.2-0.7,1.8c-1,2.5-2,5-3.2,7.5
			c-1.2,2.5-2.5,4.6-3.8,6.5c-1.3,1.8-2.7,2.8-3.9,2.9c-0.5,0-0.9-0.5-1-1.5c-0.2-1-0.2-2.3-0.1-3.9c0.1-1.6,0.3-3.5,0.6-5.6
			c0.3-2.1,0.6-4.3,1-6.6c0.4-2.3,0.8-4.6,1.3-6.9c0.4-2.3,0.9-4.5,1.4-6.6c1.6,0.4,2.9,0.5,4.1,0.4c1.1-0.1,2.3-0.8,3.5-2
			c0.3-0.3,0.3-0.5,0-0.8c-0.2-0.3-0.5-0.3-0.7-0.1c-1.1,1-2,1.5-3,1.4c-0.9-0.1-2.1-0.3-3.6-0.8c0.5-2.2,0.9-4.1,1.3-5.5
			c0.4-1.5,0.6-2.4,0.8-2.8c0.2-0.6,0.1-1.2-0.2-1.7c-0.4-0.5-0.8-0.9-1.4-1.1c-0.6-0.2-1.1-0.3-1.7-0.2c-0.6,0.1-0.9,0.5-1.1,1.1
			c-0.2,0.4-0.4,1.5-0.8,3.2c-0.4,1.7-0.8,3.7-1.3,6.1c-0.8-0.1-1.7-0.1-2.5,0c-0.8,0.1-1.6,0.4-2.5,1c-0.3,0.2-0.4,0.5-0.1,0.9
			c0.2,0.4,0.5,0.5,0.8,0.4c0.6-0.4,1.3-0.7,1.9-0.7c0.6-0.1,1.3,0,2.1,0.2c-0.4,2.2-0.8,4.6-1.2,7.1c-0.3,2-0.6,3.9-0.8,5.8
			c-0.4,1.2-0.9,2.5-1.4,3.8c-0.6,1.4-1.1,2.8-1.7,4.2c-0.6,1.4-1.2,2.6-1.9,3.6c-0.7,1.1-1.3,1.9-2.1,2.6c-0.7,0.7-1.4,1-2.1,1
			c-0.7,0.1-1.1-0.5-1.2-1.6c-0.1-1.1,0.1-2.5,0.3-4.2c0.3-1.7,0.6-3.4,1.1-5.2c0.5-1.8,1-3.4,1.5-4.8c0.3-0.8,0.2-1.5-0.2-1.9
			c-0.5-0.4-1.1-0.8-1.9-1c-0.8-0.2-1.5-0.4-2.3-0.5c-0.8-0.1-1.4-0.2-1.7-0.4c0.3-0.7,0.6-1.6,1-2.7c0.4-1.1,0.7-2.2,0.8-3.2
			c0.1-1.1,0-2-0.3-2.7c-0.3-0.8-1.1-1.1-2.2-1.1c-1.2,0.1-2.2,0.6-2.9,1.7c-0.7,1.1-1.1,2.3-1.1,3.7c0,1.1,0.2,2,0.6,2.9
			c0.4,0.9,1,1.6,1.6,2.3c0.3,0.3,0.6,0.6,0.9,0.8c-0.4,1-0.8,2.1-1.4,3.4c-0.7,1.7-1.4,3.3-2.3,4.9c-0.9,1.6-1.9,3-3,4.2
			c-1.1,1.2-2.3,1.9-3.6,2c-0.7,0-1.1-0.6-1.2-1.8c-0.1-1.2,0-2.6,0.3-4.4c0.3-1.7,0.6-3.5,1.1-5.4c0.5-1.9,1-3.5,1.4-4.9
			c0.2-0.6,0.1-1.2-0.2-1.7c-0.4-0.5-0.8-0.9-1.4-1.1c-0.6-0.3-1.1-0.3-1.7-0.2c-0.6,0.1-1,0.5-1.2,1.1c-0.4,1.2-0.7,2.4-1.1,3.8
			c-0.4,1.4-0.7,2.8-0.9,4.3c-0.2,1.5-0.3,2.9-0.3,4.2c0,1.4,0.2,2.6,0.5,3.7c0.3,1.1,0.9,2,1.7,2.6c0.8,0.7,1.8,1,3.1,1
			c1.4-0.3,2.7-1,3.9-2.3c1.2-1.2,2.3-2.7,3.3-4.4c1-1.7,1.8-3.4,2.5-5.1c0.5-1.3,1-2.5,1.3-3.5c0.1,0.1,0.2,0.1,0.3,0.2
			c0.7,0.4,1.3,0.6,1.9,0.7c-0.5,1.7-1,3.3-1.3,4.6c-0.3,1.3-0.6,2.8-0.7,4.3c-0.2,1.6-0.1,3,0.1,4.3c0.2,1.3,0.7,2.4,1.5,3.3
			c0.8,0.9,2,1.3,3.6,1.3c1.1-0.2,2-0.8,2.9-1.7c0.9-0.9,1.7-2,2.5-3.2c0.8-1.3,1.5-2.6,2.1-4.1c0.4-1.1,0.8-2.1,1.2-3.2
			c-0.1,1.5-0.2,3-0.3,4.5c-0.1,2.3,0,4.3,0.3,6c0.3,1.7,0.7,3.1,1.3,4.2c0.6,1,1.4,1.5,2.5,1.5c1.4-0.1,2.9-1.1,4.3-3
			c1.5-1.9,2.8-4.1,4-6.6c1-2.1,2-4.3,2.8-6.4c-0.1,1.4-0.2,2.7-0.3,3.9c-0.1,0.7,0.1,1.3,0.5,1.7c0.4,0.4,0.9,0.6,1.4,0.6
			c0.6,0,1.1-0.1,1.6-0.5c0.5-0.3,0.9-0.9,1.2-1.6c0.3-1.1,0.8-2.4,1.3-4c0.6-1.6,1.3-3.2,2.1-4.7c0.8-1.5,1.7-2.8,2.7-3.8
			c1-1.1,2.1-1.6,3.3-1.5c0.3,0,0.5,0.1,0.6,0.4c0.1,0.3,0.1,0.8-0.2,1.5c-0.3,1.1-0.8,2.5-1.5,4.3c-0.7,1.7-1.4,3.6-2.1,5.6
			c-0.7,2-1.3,4-1.8,6c-0.5,2-0.7,3.8-0.7,5.4c0.1,1.2,0.3,2.2,0.8,3c0.5,0.8,1.1,1.4,1.8,1.8c0.7,0.4,1.5,0.5,2.3,0.3
			c0.8-0.2,1.6-0.7,2.3-1.5c1.1-1.2,2.1-2.8,3.2-5c1.1-2.1,2.1-4.4,3-6.8c0.1-0.2,0.1-0.4,0.2-0.5c0.3,0.8,0.6,1.5,1.1,2.2
			c0.7,1.1,1.7,1.6,2.8,1.6c0.6,0,1.3-0.4,2.1-1.3c0.7-0.8,1.5-1.9,2.3-3.2c0.8-1.3,1.5-2.8,2.2-4.4c0.7-1.6,1.4-3.2,2-4.6
			c-0.3,2.1-0.6,4.5-1,7.2c-0.3,2.7-0.5,5.2-0.5,7.6c0,2.4,0.3,4.4,0.9,6c0.6,1.6,1.6,2.4,3.2,2.4c1-0.1,1.9-0.6,2.9-1.6
			c1-1,1.9-2.3,2.9-3.8c0.9-1.5,1.8-3.2,2.7-5.1c0.9-1.9,1.7-3.8,2.4-5.6c0.2,0.4,0.5,0.8,0.8,1.2c0.7,0.8,1.7,1.2,2.9,1.2
			c1,0,1.9-0.5,2.8-1.5c0.9-1,1.7-2.2,2.5-3.7c-0.6,2.1-1.1,4.3-1.5,6.5c-0.4,2.2-0.7,4.3-0.7,6.1c0,1.8,0.2,3.4,0.8,4.6
			c0.5,1.2,1.5,1.8,2.9,1.8c1-0.1,1.9-0.6,2.9-1.6c1-1,2-2.3,2.9-3.8c0.9-1.5,1.8-3.2,2.7-5.1c0.8-1.9,1.6-3.8,2.4-5.7
			c0.7-1.9,1.4-3.6,2-5.3c0.1-0.4,0.3-0.8,0.4-1.2c0.2,0.4,0.5,0.8,0.7,1.1c0.8,0.8,1.9,1.1,3.4,0.9c1.4-0.3,2.6-1.2,3.6-2.6
			c1-1.4,1.9-3,2.7-4.9c-0.7,4.6-1.3,9-1.9,13.3c-0.6,4.3-1.2,8.7-1.7,13.3c-1.2,0.7-2.5,1.7-4,2.9c-1.5,1.2-2.9,2.5-4.2,4.1
			c-1.3,1.5-2.4,3.2-3.2,5c-0.8,1.8-1.1,3.6-0.9,5.4c0.1,0.8,0.4,1.5,1,2c0.5,0.5,1.4,0.7,2.6,0.5c1.7-0.2,3.3-0.9,4.7-2.2
			c1.4-1.2,2.6-2.8,3.6-4.8c1-1.9,1.9-4.1,2.7-6.6c0.7-2.5,1.4-5,1.9-7.7c3.4-2.8,6.2-6.2,8.4-10.1c2.2-3.9,4.2-8.1,5.9-12.5
			L377.1,209.9z M288.7,197.1c0.6-3.5,1.5-6.6,2.5-9.4c1-2.8,2.3-5.1,3.8-6.9c1.5-1.7,3.3-2.6,5.5-2.6c1.7,0.1,3,0.7,3.9,1.8
			c0.9,1.2,1.4,2.7,1.4,4.8c0,1.7-0.6,3.7-1.9,5.9c-1.3,2.2-2.9,4.3-4.8,6.4c-1.9,2.1-3.9,4.1-6.1,5.9c-2.2,1.8-4.1,3.3-5.8,4.4
			C287.6,203.9,288.1,200.5,288.7,197.1z M252.7,208.5c-1.1-0.8-1.8-1.7-2.2-2.6c-0.4-1-0.5-1.8-0.3-2.7c0.2-0.8,0.5-1.5,1-2.1
			c0.5-0.6,1.1-0.8,1.7-0.8c0.8,0,1.3,0.3,1.4,1c0.1,0.7,0.1,1.5,0,2.4c-0.2,0.9-0.4,1.8-0.8,2.7
			C253.2,207.4,252.9,208.1,252.7,208.5z M314.4,213.7c-0.8,1.9-1.6,3.7-2.5,5.4c-0.8,1.7-1.7,3.1-2.5,4.3c-0.8,1.2-1.5,1.8-2.1,1.8
			c-0.4,0-0.7-0.4-0.8-1.3c-0.1-0.8,0-1.9,0.2-3.1c0.2-1.2,0.6-2.6,1.1-4.1c0.5-1.5,1.2-2.8,2-4c0.8-1.2,1.8-2.2,2.9-3
			c1.1-0.8,2.3-1.2,3.6-1.1C315.9,210.1,315.2,211.8,314.4,213.7z M337.6,216c-0.8,1.3-1.6,2.5-2.4,3.4c-0.8,1-1.6,1.5-2.3,1.5
			c-0.5,0.1-0.7-0.2-0.8-0.8c0-0.6,0.1-1.4,0.4-2.3c0.3-0.9,0.7-1.9,1.2-2.9c0.6-1.1,1.2-2.1,1.9-3c0.7-1,1.6-1.7,2.5-2.4
			c0.9-0.6,1.9-1,2.8-1c-0.3,0.9-0.7,2-1.3,3.4C339,213.4,338.3,214.7,337.6,216z M358.4,242c-0.4,2-1,3.8-1.6,5.3
			c-0.7,1.6-1.5,2.9-2.4,3.9c-1,1-2.1,1.6-3.6,1.8c-0.9,0.1-1.5,0-1.9-0.3c-0.4-0.3-0.6-0.8-0.6-1.3c-0.2-1.6,0.1-3.2,0.9-4.8
			c0.8-1.6,1.8-3.1,3-4.5c1.2-1.4,2.5-2.7,3.8-3.8c1.3-1.1,2.5-2,3.5-2.6C359.2,237.9,358.9,240,358.4,242z"/>
	</g>
	<path class="st0" d="M193.5,182.5c-0.7-0.8-1.1-0.6-1.4,0.4c-0.2,0.7-0.2,1.4-0.1,2.2c0.1,0.6,0,1.1-0.2,1.6
		c-1.1,2-2.8,3.2-5.1,3.4c-4.1,0.4-7.5-1.2-10.6-3.8c-2.7-2.3-5-4.9-7.7-7.2c-2.5-2.1-5.2-2.7-8.2-2.2c-1.7,0.3-3,1.2-3.7,2.8
		c-0.5,1.2-1,2.3-1.4,3.6c-0.8,2.4-1.9,4.7-3.2,6.8c-0.5,0.8-1.1,1.3-2.1,1.3c-1.3-0.1-2.6-0.5-3.7-1.3c-0.6-0.4-0.8-0.8-0.2-1.4
		c1-0.8,1.6-1.8,2.2-2.9c1.5-2.9,0.5-7-2.1-8.9c-1.9-1.3-5.1-1-6.3,0.7c-1.1,1.6-1.4,3.3-1.2,5.1c0.2,1.6,0.9,3.1,1.8,4.5
		c0.4,0.6,0.4,0.9-0.3,1.4c-2,1.4-4.3,2.1-6.8,2.1c-1,0-2-0.3-3-0.6c-1-0.3-1.1-0.6-0.4-1.4c1.7-2.3,2.7-4.9,2.3-7.8
		c-0.3-2.1-0.9-4.1-3.1-5.1c-2.2-1.1-5.3,0.1-6,2.4c-0.5,1.6-0.6,3.3-0.1,4.9c0.5,1.9,1.4,3.7,2.5,5.3c0.3,0.5,0.4,0.9-0.1,1.3
		c-1.3,1.1-2.6,2.2-4.4,2.5c-2.7,0.4-5.1,0.3-7.1-1.9c-1.2-1.4-1.4-3-0.5-4.4c0.4-0.6,1.6-0.9,2.3-0.4c0.7,0.4,0.6,1,0.2,1.5
		c-0.1,0.1-0.1,0.3-0.2,0.5c-0.1,0.4-0.2,0.9,0.4,1.1c0.5,0.1,1,0.2,1.4-0.3c0.9-1.2,0.1-3.9-1.4-4.3c-1.2-0.3-2.5-0.4-3.6,0.5
		c-1.1,0.9-1.5,2.2-1.2,3.6c0.3,1.5,1,2.7,2.1,3.7c1.3,1.1,2.9,1.4,4.4,2.1c1,0.5,2.1,0.6,3.3,0.4c2.3-0.2,4.2-1.3,5.9-2.7
		c0.9-0.7,1.6-0.9,2.7-0.5c4.5,1.7,9,2,13.5-0.1c0.4-0.2,0.7-0.2,1.1,0c2.2,1.5,4.5,2.2,7.3,1.8c1.2-0.2,2.2-0.4,3.1-1.3
		c1.6-1.7,2.8-3.7,3.8-5.8c0.7-1.4,1.2-2.8,2.3-4c2.2-2.4,5.9-2.7,8.4-0.6c2.3,1.9,4,4.4,5.9,6.7c1.4,1.7,2.8,3.3,4.9,4.3
		c4.3,2,8.3,0.9,12-1.4c1.2-0.7,2-2,2.5-3.3C194.7,185.7,194.8,184,193.5,182.5z M126,187.3c-1.2-2-2.4-3.9-2.3-6.4
		c0-2.3,0.8-3.4,2.6-3.9c1.2-0.3,2.1,0.1,2.3,1.3c0.6,3.2-0.3,6.1-1.8,8.9C126.5,187.8,126.2,187.7,126,187.3z M128.3,188.3
		c-0.2,0.2-0.3,0.5-0.6,0.3c-0.2-0.2,0-0.4,0.1-0.6c1.3-2.8,2.2-5.7,2-8.9c0-0.2-0.2-0.5,0.2-0.5c0.1,0,0.3,0.2,0.3,0.3
		c0.4,0.9,0.6,1.9,0.7,2.7C130.7,184.4,130.1,186.6,128.3,188.3z M141.6,190.2c-0.9,0.4-1.9,0.6-2.8,0.9c-0.1,0-0.2,0-0.2,0
		c0-0.1,0.1-0.2,0.1-0.3c0.8-0.5,1.6-0.9,2.5-1.3c0.2-0.1,0.5,0,0.7,0.2C142.1,189.9,141.9,190.1,141.6,190.2z M143,186.2
		c-0.4,0.5-0.7,0.4-1,0c-1.1-1.4-2.1-2.8-1.9-4.7c0-2.5,1.9-4.2,4.2-3.7c1,0.2,1.6,0.8,1.6,1.8c0.1,1.6-0.6,2.9-1.2,4.2
		C144.2,184.7,143.6,185.4,143,186.2z M143.7,188.3c-0.4-0.4-0.4-0.7,0-1.2c1.1-1.4,2.1-2.9,2.8-4.6c0.1-0.2,0.1-0.3,0.2-0.5
		c0.3-0.4,0.1-1,0.4-1.4c0.5,0.5,0.5,1.1,0.6,1.8c0,0.2,0,0.3,0,0.5c-0.2,2.2-1.4,3.8-2.9,5.3C144.5,188.4,144.2,188.7,143.7,188.3z
		 M162.5,178.6c-2.3,0.9-3.8,2.6-4.7,4.8c-0.7,1.6-1.6,3.1-2.4,4.7c-0.4,0.8-1,1.5-1.7,2.1c-0.2,0.2-0.6,0.4-0.6,0.4
		c-0.2-0.3,0-0.5,0.2-0.8c1-2,1.9-4.1,2.6-6.3c0.3-0.9,0.7-1.7,1.1-2.6c1.1-2.4,3.1-3,5.5-3c0.2,0.1,0.6-0.1,0.6,0.2
		C163.2,178.5,162.8,178.5,162.5,178.6z M184.4,192.1c-0.4,0-0.8,0-1.2,0c-2.3-0.3-4.4-1.2-6.1-2.9c-0.1-0.1-0.3-0.3-0.2-0.4
		c0-0.1,0.2,0,0.3,0c2.1,1.6,4.7,2.1,7.2,2.8c0.2,0.1,0.5-0.1,0.6,0.3C184.8,192,184.6,192,184.4,192.1z M193.4,185.8
		c-0.3,0,0-0.4-0.1-0.7c-0.1-0.2-0.1-0.4-0.1-0.6c0-0.2,0-0.4,0.2-0.4c0.2,0,0.2,0.3,0.2,0.4c0,0.2,0,0.4,0.1,0.6
		C193.7,185.5,193.7,185.9,193.4,185.8z"/>
	<path class="st0" d="M318.9,244.6c-0.5-1.3-1.3-2.6-2.5-3.3c-3.8-2.3-7.7-3.4-12-1.4c-2.1,1-3.5,2.6-4.9,4.3
		c-1.9,2.3-3.6,4.8-5.9,6.7c-2.5,2.1-6.2,1.8-8.4-0.6c-1.1-1.2-1.6-2.6-2.3-4c-1-2.1-2.2-4.1-3.8-5.8c-0.9-0.9-1.9-1.1-3.1-1.3
		c-2.7-0.5-5.1,0.3-7.3,1.8c-0.4,0.3-0.7,0.2-1.1,0c-4.5-2.1-9-1.8-13.5-0.1c-1.1,0.4-1.8,0.3-2.7-0.5c-1.7-1.4-3.6-2.5-5.9-2.7
		c-1.1-0.1-2.2-0.1-3.3,0.4c-1.5,0.7-3.1,0.9-4.4,2.1c-1.1,1-1.8,2.3-2.1,3.7c-0.3,1.4,0.1,2.7,1.2,3.6c1,0.9,2.3,0.8,3.6,0.5
		c1.4-0.4,2.2-3.1,1.4-4.3c-0.4-0.5-0.9-0.5-1.4-0.3c-0.5,0.2-0.5,0.6-0.4,1.1c0,0.2,0.1,0.3,0.2,0.5c0.4,0.6,0.5,1.1-0.2,1.5
		c-0.7,0.4-1.9,0.2-2.3-0.4c-0.8-1.4-0.6-3,0.5-4.4c1.9-2.2,4.4-2.3,7.1-1.9c1.8,0.3,3.1,1.3,4.4,2.5c0.5,0.4,0.4,0.8,0.1,1.3
		c-1.1,1.6-1.9,3.4-2.5,5.3c-0.5,1.7-0.4,3.3,0.1,4.9c0.7,2.3,3.9,3.4,6,2.4c2.2-1.1,2.8-3,3.1-5.1c0.5-2.9-0.5-5.5-2.3-7.8
		c-0.6-0.8-0.6-1.1,0.4-1.4c1-0.3,2.1-0.6,3-0.6c2.5,0.1,4.8,0.7,6.8,2.1c0.6,0.4,0.6,0.8,0.3,1.4c-0.9,1.4-1.6,2.9-1.8,4.5
		c-0.3,1.9,0.1,3.6,1.2,5.1c1.2,1.7,4.4,2.1,6.3,0.7c2.7-1.9,3.6-5.9,2.1-8.9c-0.6-1.1-1.2-2.1-2.2-2.9c-0.7-0.6-0.5-0.9,0.2-1.4
		c1.1-0.8,2.4-1.2,3.7-1.3c0.9-0.1,1.6,0.5,2.1,1.3c1.4,2.1,2.5,4.4,3.2,6.8c0.4,1.2,0.9,2.4,1.4,3.6c0.7,1.6,2,2.6,3.7,2.8
		c3.1,0.5,5.8-0.2,8.2-2.2c2.7-2.3,5-4.9,7.7-7.2c3-2.6,6.5-4.2,10.6-3.8c2.3,0.2,4,1.4,5.1,3.4c0.3,0.5,0.3,1.1,0.2,1.6
		c-0.1,0.7-0.1,1.5,0.1,2.2c0.2,1,0.7,1.1,1.4,0.4C319.7,248,319.6,246.3,318.9,244.6z M251.7,244.7c1.5,2.8,2.4,5.7,1.8,8.9
		c-0.2,1.2-1.1,1.6-2.3,1.3c-1.8-0.4-2.5-1.5-2.6-3.9c-0.1-2.4,1.1-4.4,2.3-6.4C251.1,244.3,251.4,244.2,251.7,244.7z M255.9,250.2
		c-0.1,0.8-0.3,1.8-0.7,2.7c-0.1,0.1-0.2,0.3-0.3,0.3c-0.4,0-0.2-0.3-0.2-0.5c0.2-3.2-0.7-6.1-2-8.9c-0.1-0.2-0.3-0.4-0.1-0.6
		c0.3-0.2,0.4,0.2,0.6,0.3C255,245.4,255.6,247.6,255.9,250.2z M266.8,242.4c-0.2,0.2-0.4,0.3-0.7,0.2c-0.8-0.4-1.6-0.9-2.5-1.3
		c-0.1,0-0.1-0.2-0.1-0.3c0.1,0,0.2,0,0.2,0c0.9,0.3,1.9,0.4,2.8,0.9C266.7,241.9,267,242.1,266.8,242.4z M269.5,248.2
		c0.7,1.3,1.4,2.7,1.2,4.2c-0.1,1.1-0.6,1.6-1.6,1.8c-2.3,0.5-4.2-1.2-4.2-3.7c-0.1-1.9,0.8-3.3,1.9-4.7c0.4-0.4,0.6-0.5,1,0
		C268.5,246.6,269.1,247.3,269.5,248.2z M269.6,243.8c1.5,1.4,2.7,3.1,2.9,5.3c0,0.2,0,0.3,0,0.5c-0.1,0.6-0.1,1.3-0.6,1.8
		c-0.3-0.4-0.1-1-0.4-1.4c-0.1-0.1-0.1-0.3-0.2-0.5c-0.6-1.7-1.6-3.2-2.8-4.6c-0.4-0.5-0.4-0.8,0-1.2
		C269,243.3,269.4,243.6,269.6,243.8z M288,254c-0.1,0.3-0.4,0.2-0.6,0.2c-2.4-0.1-4.4-0.6-5.5-3c-0.4-0.9-0.8-1.7-1.1-2.6
		c-0.7-2.2-1.6-4.2-2.6-6.3c-0.1-0.2-0.4-0.5-0.2-0.8c0,0,0.4,0.2,0.6,0.4c0.7,0.6,1.2,1.3,1.7,2.1c0.8,1.5,1.7,3,2.4,4.7
		c0.9,2.2,2.4,3.9,4.7,4.8C287.7,253.5,288.1,253.5,288,254z M309.9,240c-0.1,0.3-0.4,0.2-0.6,0.3c-2.5,0.7-5,1.2-7.2,2.8
		c-0.1,0.1-0.3,0.2-0.3,0c0-0.1,0.1-0.3,0.2-0.4c1.7-1.7,3.7-2.6,6.1-2.9c0.4,0,0.8,0,1.2,0C309.5,240,309.7,240,309.9,240z
		 M318.6,246.8c0,0.2,0,0.4-0.1,0.6c0,0.2,0,0.4-0.2,0.4c-0.2,0-0.2-0.2-0.2-0.4c0-0.2,0-0.4,0.1-0.6c0.1-0.2-0.2-0.6,0.1-0.7
		C318.6,246.1,318.6,246.5,318.6,246.8z"/>
</g>
</svg>
